<?xml version="1.0" encoding="utf-8"?>
<!-- Svg Vector Icons : http://www.onlinewebfonts.com/icon -->
<!DOCTYPE svg PUBLIC "-//W3C//DTD SVG 1.1//EN" "http://www.w3.org/Graphics/SVG/1.1/DTD/svg11.dtd">
<svg version="1.1" xmlns="http://www.w3.org/2000/svg" xmlns:xlink="http://www.w3.org/1999/xlink" x="0px" y="0px" viewBox="0 0 256 256" enable-background="new 0 0 256 256" xml:space="preserve">
<g><g><path fill="#ffffff" d="M133.7,147.3h-17.1c0-2.5-0.1-4-0.1-4.5c0-5.6,0.9-10.1,2.7-13.7c1.8-3.6,5.5-7.6,11-12.1c5.5-4.5,8.8-7.4,9.9-8.8c1.7-2.2,2.5-4.6,2.5-7.2c0-3.7-1.5-6.8-4.4-9.4c-2.9-2.6-6.9-3.9-11.8-3.9c-4.8,0-8.8,1.4-12,4.1c-3.2,2.7-5.4,6.9-6.6,12.5L90.4,102c0.5-8,3.9-14.8,10.2-20.4c6.3-5.6,14.7-8.4,25-8.4c10.8,0,19.5,2.8,25.9,8.5c6.4,5.7,9.6,12.3,9.6,19.8c0,4.2-1.2,8.1-3.5,11.8c-2.4,3.7-7.4,8.8-15.1,15.2c-4,3.3-6.5,6-7.4,8C134.1,138.5,133.7,142.1,133.7,147.3L133.7,147.3z M116.6,179.6v-18.9h18.9v18.9H116.6z"/><path fill="#ffffff" d="M10,128c0,65.1,52.9,118,118,118c65.1,0,118-52.9,118-118c0-65.1-52.9-118-118-118C62.9,10,10,62.9,10,128L10,128z M128,48.4c43.9,0,79.6,35.6,79.6,79.6c0,43.9-35.6,79.6-79.6,79.6c-43.9,0-79.6-35.6-79.6-79.6C48.4,84.1,84.1,48.4,128,48.4z"/></g></g>
</svg>