<?xml version="1.0" encoding="utf-8"?>
<!-- Svg Vector Icons : http://www.onlinewebfonts.com/icon -->
<!DOCTYPE svg PUBLIC "-//W3C//DTD SVG 1.1//EN" "http://www.w3.org/Graphics/SVG/1.1/DTD/svg11.dtd">
<svg version="1.1" xmlns="http://www.w3.org/2000/svg" xmlns:xlink="http://www.w3.org/1999/xlink" x="0px" y="0px" viewBox="0 0 256 256" enable-background="new 0 0 256 256" xml:space="preserve">
<metadata> Svg Vector Icons : http://www.onlinewebfonts.com/icon </metadata>
<g><g><path fill="#619a38" d="M128,164.9c30.5,0,55.3-31.4,55.3-70.1S158.5,24.7,128,24.7c-30.5,0-55.3,31.4-55.3,70.1C72.7,133.4,97.5,164.9,128,164.9z M128,39.5c22,0,40.6,25.3,40.6,55.3c0,30-18.6,55.3-40.6,55.3s-40.6-25.3-40.6-55.3C87.4,64.8,106,39.5,128,39.5z"/><path fill="#619a38" d="M25.1,177.3l-14.7,44.2c-0.7,2.3-0.4,4.7,1,6.6c1.4,1.9,3.6,3.1,6,3.1h221.3c2.4,0,4.6-1.1,6-3.1c1.4-1.9,1.8-4.4,1-6.6l-14.8-44.3c-0.8-2.3-2.6-4.1-5-4.8l-51.6-14.8c-1.8-0.5-3.7-0.3-5.3,0.5L128,178.7l-40.9-20.5c-1.7-0.8-3.5-1-5.3-0.5l-51.6,14.8C27.7,173.2,25.9,175,25.1,177.3z M83,172.8l41.7,20.8c2.1,1,4.5,1,6.6,0l41.7-20.8l45.1,12.9l10.3,30.8H27.6l10.3-30.8L83,172.8z"/></g></g>
</svg>