<?xml version="1.0" encoding="utf-8"?>
<!-- Svg Vector Icons : http://www.onlinewebfonts.com/icon -->
<!DOCTYPE svg PUBLIC "-//W3C//DTD SVG 1.1//EN" "http://www.w3.org/Graphics/SVG/1.1/DTD/svg11.dtd">
<svg version="1.1" xmlns="http://www.w3.org/2000/svg" xmlns:xlink="http://www.w3.org/1999/xlink" x="0px" y="0px" viewBox="0 0 256 256" enable-background="new 0 0 256 256" xml:space="preserve">
<metadata> Svg Vector Icons : http://www.onlinewebfonts.com/icon </metadata>
<g><g><g><path fill="#ffffff" d="M97.6,21.8c-2.3,1-3.7,2.5-4.7,4.9c-0.6,1.6-0.7,12.6-0.7,101.4s0.1,99.8,0.7,101.4c1,2.3,2.5,3.8,4.7,4.9c1.7,0.8,3.7,0.9,30,0.9c19.1,0,28.7-0.2,30-0.5c2.4-0.7,5.2-3.4,5.9-5.9c0.4-1.4,0.5-30.2,0.5-101.1c0-88.5-0.1-99.5-0.7-101c-1-2.3-2.5-3.8-4.7-4.9c-1.7-0.8-3.7-0.9-30.4-0.9S99.3,21,97.6,21.8z M145.9,128v89.2H128h-17.9V128V38.8H128h17.9V128z"/><path fill="#ffffff" d="M183.5,71.8c-2.3,1-3.7,2.5-4.7,4.9c-0.6,1.6-0.7,10.1-0.7,76.4c0,66.3,0.1,74.8,0.7,76.4c1,2.3,2.5,3.8,4.7,4.9c1.7,0.8,3.6,0.9,28.1,0.9c17.7,0,26.8-0.2,28.1-0.5c2.4-0.7,5.2-3.4,5.9-5.9c0.4-1.3,0.5-23.4,0.5-76.1c0-65.9-0.1-74.4-0.7-76c-1-2.3-2.5-3.8-4.7-4.9c-1.7-0.8-3.6-0.9-28.6-0.9S185.2,71,183.5,71.8z M228.1,153v64.2h-16h-16V153V88.8h16h16V153z"/><path fill="#ffffff" d="M15.4,108.6c-2.3,1-3.7,2.5-4.7,4.9c-0.6,1.6-0.7,8.3-0.7,58c0,49.7,0.1,56.4,0.7,58c1,2.3,2.5,3.8,4.7,4.9c1.7,0.8,3.6,0.9,28.1,0.9c17.7,0,26.8-0.2,28.1-0.5c2.4-0.7,5.2-3.4,5.9-5.9c0.7-2.5,0.7-112,0-114.6c-0.7-2.4-2.6-4.6-5-5.6c-1.7-0.8-3.7-0.9-28.6-0.9C19.1,107.7,17.2,107.8,15.4,108.6z M60,171.4v45.8H44h-16v-45.8v-45.8h16h16V171.4z"/></g></g></g>
</svg>