<svg xmlns="http://www.w3.org/2000/svg" viewBox="0 0 24 24" fill="none">
  <defs>
    <linearGradient id="badge" x1="12" y1="3" x2="12" y2="13" gradientUnits="userSpaceOnUse">
      <stop stop-color="#fff3d6"/>
      <stop offset="1" stop-color="#e8c06a"/>
    </linearGradient>
  </defs>
  <path d="M12 3.2c3.5 0 6.3 2.8 6.3 6.3S15.5 15.8 12 15.8 5.7 13 5.7 9.5 8.5 3.2 12 3.2Z" fill="url(#badge)" stroke="#8a6420" stroke-width=".8"/>
  <circle cx="12" cy="9.5" r="4.1" fill="none" stroke="#8a6420" stroke-width=".7"/>
  <path d="M12 7.1 12.8 9l2 .2-1.5 1.2.5 2-1.8-1.1-1.8 1.1.5-2-1.5-1.2 2-.2L12 7.1Z" fill="#c9922e" stroke="#8a6420" stroke-width=".35"/>
  <path d="M8.8 14.8 7.2 20.2l4.8-2.6 4.8 2.6-1.6-5.4" fill="#d4a63c" stroke="#8a6420" stroke-width=".65" stroke-linejoin="round"/>
  <path d="M7.2 20.2 9.8 18.2M16.8 20.2 14.2 18.2" stroke="#8a6420" stroke-width=".55" stroke-linecap="round"/>
</svg>
