<?xml version="1.0" encoding="utf-8"?>
<!-- Svg Vector Icons : http://www.onlinewebfonts.com/icon -->
<!DOCTYPE svg PUBLIC "-//W3C//DTD SVG 1.1//EN" "http://www.w3.org/Graphics/SVG/1.1/DTD/svg11.dtd">
<svg version="1.1" xmlns="http://www.w3.org/2000/svg" xmlns:xlink="http://www.w3.org/1999/xlink" x="0px" y="0px" viewBox="0 0 256 256" enable-background="new 0 0 256 256" xml:space="preserve">
<metadata> Svg Vector Icons : http://www.onlinewebfonts.com/icon </metadata>
<g><g><g><path fill="#619a38" d="M10,49.6v29h29h29v-29v-29H39H10V49.6z M48.5,49.6v9.5H39h-9.4l-0.1-9c0-4.9,0-9.2,0.1-9.5c0.1-0.5,2.2-0.6,9.5-0.5l9.4,0.1V49.6z"/><path fill="#619a38" d="M98,48.7c0,6.1,0.2,9.7,0.5,9.7c0.3,0,31.9,0,70.3,0s71.5,0,73.5,0h3.7v-9.7V39h-74H98V48.7z"/><path fill="#619a38" d="M10,128v29h29h29v-29V99H39H10V128z M48.5,128v9.4H39h-9.4l-0.1-9c0-4.9,0-9.2,0.1-9.5c0.1-0.5,2.2-0.6,9.5-0.5l9.4,0.1V128z"/><path fill="#619a38" d="M98,127.1v9.7h74h74v-9.7v-9.7h-74H98V127.1z"/><path fill="#619a38" d="M10,206.4v29h29h29v-29v-29H39H10V206.4z M48.6,206.2l-0.1,9.6H39h-9.5l-0.1-9c0-4.9,0-9.2,0.1-9.5c0.2-0.5,2.4-0.6,9.7-0.6h9.4L48.6,206.2z"/><path fill="#619a38" d="M98,205.4v9.7h74h74v-9.7v-9.7h-74H98V205.4z"/></g></g></g>
</svg>