<?xml version="1.0" encoding="utf-8"?>
<!-- Svg Vector Icons : http://www.onlinewebfonts.com/icon -->
<!DOCTYPE svg PUBLIC "-//W3C//DTD SVG 1.1//EN" "http://www.w3.org/Graphics/SVG/1.1/DTD/svg11.dtd">
<svg version="1.1" xmlns="http://www.w3.org/2000/svg" xmlns:xlink="http://www.w3.org/1999/xlink" x="0px" y="0px" viewBox="0 0 1000 1000" enable-background="new 0 0 1000 1000" xml:space="preserve">
<metadata> Svg Vector Icons : http://www.onlinewebfonts.com/icon </metadata>
<g><g transform="translate(0.000000,448.000000) scale(0.100000,-0.100000)"><path d="M575.7,3763.3c-95.9-24.9-255.1-120.8-316.5-188C148,3448.7,100,3324,100,3166.7c0-126.6,7.7-157.3,63.3-264.7c74.8-136.2,151.5-211,295.4-285.8c143.9-74.8,345.3-72.9,489.1,0c128.5,67.1,237.9,176.5,305,305c72.9,143.9,74.8,345.3,0,489.1c-72.9,141.9-149.6,220.6-280.1,289.6C851.9,3765.2,685,3792.1,575.7,3763.3z M890.3,3423.8c84.4-63.3,122.8-155.4,113.2-282c-11.5-191.8-126.6-289.6-326.1-276.2c-191.8,11.5-289.6,126.6-276.2,326.1c7.7,126.6,49.9,197.6,149.6,249.4C637.1,3487.1,815.5,3477.5,890.3,3423.8z" fill="#ffffff"/><path d="M4872.4,3763.3c-95.9-24.9-255.1-120.8-316.5-188c-111.3-126.6-159.2-251.3-159.2-408.6c0-126.6,7.7-157.3,63.3-264.7c205.2-379.8,663.7-454.6,961-157.3c295.4,295.4,222.5,757.7-151.5,955.2C5148.6,3765.2,4981.7,3792.1,4872.4,3763.3z M5187,3423.8c84.4-63.3,122.8-155.4,113.2-282c-11.5-191.8-126.6-289.6-326.1-276.2c-191.8,11.5-289.6,126.6-276.2,326.1c7.7,126.6,49.9,197.6,149.6,249.4C4933.8,3487.1,5112.2,3477.5,5187,3423.8z" fill="#ffffff"/><path d="M9169.1,3763.3c-95.9-24.9-255.1-120.8-316.5-188c-111.3-126.6-159.2-251.3-159.2-408.6c0-126.6,7.7-157.3,63.3-264.7c205.2-379.8,663.7-454.6,961-157.3c295.4,295.4,222.5,757.7-151.5,955.2C9445.3,3765.2,9278.4,3792.1,9169.1,3763.3z M9483.7,3423.8c84.4-63.3,122.8-155.4,113.2-282c-11.5-191.8-126.6-289.6-326.1-276.2c-191.8,11.5-289.6,126.6-276.2,326.1c7.7,126.6,49.9,197.6,149.6,249.4C9230.5,3487.1,9408.9,3477.5,9483.7,3423.8z" fill="#ffffff"/><path d="M631.3,2223c-107.4-53.7-130.4,63.3,531.3-2581.8L1776.5-2818v-314.6c0-337.6,11.5-397.1,90.2-431.6c65.2-30.7,6199.5-30.7,6264.7,0c78.7,34.5,90.2,94,90.2,431.6v314.6l615.7,2459.1C9372.4,1783.7,9449.2,2106,9430,2152c-26.9,63.3-115.1,103.6-178.4,82.5c-24.9-9.6-594.6-326.1-1264.1-704L6767.6,843.8l69-124.7c47.9-82.5,80.6-120.8,99.8-117c17.3,3.8,416.2,224.4,888.1,491c471.9,264.7,863.2,481.5,867,481.5c7.7,0-1300.5-1689.9-1480.8-1914.3l-65.2-80.6L6126.9,888c-659.8,851.7-1035.8,1319.7-1072.2,1337c-48,24.9-63.3,24.9-111.3,0c-36.4-17.3-406.7-475.7-1066.5-1327.4c-556.3-715.5-1020.5-1296.7-1032-1292.9c-23,7.7-1546,1956.5-1538.4,1966.1c3.8,3.8,402.8-218.7,890-493L3080.8,581L3148,700c36.4,67.1,67.1,128.5,67.1,138.1c-1.9,23-2434.2,1388.8-2493.6,1398.3C694.6,2242.2,654.4,2236.4,631.3,2223z M6054,490.9C6673.6-309,7055.3-784.7,7089.8-802c44.1-21.1,65.2-23,109.3-3.8c36.5,15.4,326.1,374,907.3,1122.1c470,606.1,855.5,1099.1,859.3,1095.3c3.9-3.8-972.5-3930.3-1005.1-4041.6c-9.6-32.6-166.9-34.5-2961.7-34.5H2046.9l-19.2,72.9c-84.4,318.4-999.4,3999.4-995.5,4003.2c3.8,1.9,389.4-489.1,859.3-1095.3c569.7-732.7,870.8-1106.8,907.3-1122.1c38.4-17.3,65.2-17.3,105.5,0c34.5,15.4,387.5,456.5,1068.4,1333.1l1016.6,1312l40.3-42.2C5052.7,1776.1,5513.1,1187.2,6054,490.9z M7914.6-3124.9v-153.5H4999H2083.4v153.5v153.4H4999h2915.6V-3124.9z" fill="#ffffff"/><path d="M4931.9,690.4C4891.6,669.3,3992-518.1,3945.9-614c-24.9-47.9-24.9-63.3,0-111.3c15.3-30.7,234-333.8,487.2-671.4c305-406.7,477.6-621.5,514.1-636.8c40.3-17.3,63.3-17.3,105.5,0c34.5,15.4,205.3,230.2,512.2,638.8c253.2,337.6,471.9,636.8,487.2,663.7c19.2,36.5,21.1,63.3,7.6,99.7c-26.8,71-943.7,1290.9-991.7,1317.8C5020.1,715.3,4983.7,715.3,4931.9,690.4z M5373.1-190.1l358.7-481.5l-360.6-477.6c-197.6-264.7-364.5-479.5-372.1-479.5s-176.5,216.8-374,479.5l-358.7,479.5L4625-190.1c197.6,264.7,366.4,479.5,374,479.5S5175.5,72.7,5373.1-190.1z" fill="#ffffff"/><path d="M4845.6-669.6v-153.4H4999h153.5v153.4v153.5H4999h-153.5V-669.6z" fill="#ffffff"/><path d="M1776.5-4285.4c0-416.2,9.6-470,90.2-506.4c65.2-30.7,6199.5-30.7,6264.7,0c80.6,36.4,90.2,90.2,90.2,506.4v393.2h-153.5h-153.5V-4199v-306.9H4999H2083.4v306.9v306.9h-153.5h-153.5V-4285.4z" fill="#ffffff"/><path d="M2390.3-4045.6V-4199h153.5h153.5v153.5v153.5h-153.5h-153.5V-4045.6z" fill="#ffffff"/><path d="M3004.1-4045.6V-4199h153.5H3311v153.5v153.5h-153.5h-153.5V-4045.6z" fill="#ffffff"/><path d="M3617.9-4045.6V-4199h153.5h153.5v153.5v153.5h-153.5h-153.5V-4045.6z" fill="#ffffff"/><path d="M4231.7-4045.6V-4199h153.5h153.5v153.5v153.5h-153.5h-153.5V-4045.6z" fill="#ffffff"/><path d="M4845.6-4045.6V-4199H4999h153.5v153.5v153.5H4999h-153.5V-4045.6z" fill="#ffffff"/><path d="M5459.4-4045.6V-4199h153.5h153.5v153.5v153.5h-153.5h-153.5V-4045.6z" fill="#ffffff"/><path d="M6073.2-4045.6V-4199h153.5h153.5v153.5v153.5h-153.5h-153.5V-4045.6z" fill="#ffffff"/><path d="M6687-4045.6V-4199h153.4h153.4v153.5v153.5h-153.4H6687V-4045.6z" fill="#ffffff"/><path d="M7300.8-4045.6V-4199h153.5h153.5v153.5v153.5h-153.5h-153.5V-4045.6z" fill="#ffffff"/></g></g>
</svg>