<?xml version="1.0" encoding="utf-8"?>
<!-- Svg Vector Icons : http://www.onlinewebfonts.com/icon -->
<!DOCTYPE svg PUBLIC "-//W3C//DTD SVG 1.1//EN" "http://www.w3.org/Graphics/SVG/1.1/DTD/svg11.dtd">
<svg version="1.1" xmlns="http://www.w3.org/2000/svg" xmlns:xlink="http://www.w3.org/1999/xlink" x="0px" y="0px" viewBox="0 0 1000 1000" enable-background="new 0 0 1000 1000" xml:space="preserve">
<metadata> Svg Vector Icons : http://www.onlinewebfonts.com/icon </metadata>
<g><path d="M928.8,377.5v490c0,33.6-33.2,61.6-66.9,61.6H131.7c-33.6,0-60.9-27.3-60.9-60.9V137.5c0-33.6,28-66.3,61.7-66.3h490V10h-490C65.3,10,10,70.3,10,137.5v730.7C10,935.5,64.5,990,131.7,990h730.2c67.2,0,128.1-55.2,128.1-122.5v-490H928.8z" fill="#ffffff"/><path d="M258.4,563.3L126.7,829.9c-11,30,13,56.9,43,43l266.4-131.8c11.5-2.2,22.6-6.7,31.5-15.6l473.3-473.6c23.8-23.8,23.8-62.3,0-86.1L833.3,58.2c-23.8-23.8-62.3-23.8-86.1,0L274,531.8C265.1,540.7,260.6,551.8,258.4,563.3z M768.8,122.8c11.9-11.9,31.1-11.9,43,0l64.5,64.6c11.9,11.9,11.9,31.2,0,43.1L811.8,295l-106-109.2L768.8,122.8z M660.4,231.2L768.8,338L424.6,682.5c-40.3-40.4-96.1-96.2-107.6-107.6L660.4,231.2z M371,715l-164.5,99.7c-15,7-28.4-7.5-21.5-21.5l99.6-164.6L371,715z" fill="#ffffff"/></g>
</svg>