<?xml version="1.0" encoding="utf-8"?>
<!-- Svg Vector Icons : http://www.onlinewebfonts.com/icon -->
<!DOCTYPE svg PUBLIC "-//W3C//DTD SVG 1.1//EN" "http://www.w3.org/Graphics/SVG/1.1/DTD/svg11.dtd">
<svg version="1.1" xmlns="http://www.w3.org/2000/svg" xmlns:xlink="http://www.w3.org/1999/xlink" x="0px" y="0px" viewBox="0 0 256 256" enable-background="new 0 0 256 256" xml:space="preserve">
<metadata> Svg Vector Icons : http://www.onlinewebfonts.com/icon </metadata>
<g><g><g><path fill="#000000" d="M20.3,40.4c-3.3,1.1-5.9,3-7.5,5.5c-1.8,2.6-2.2,4.1-1.3,4.8c0.4,0.4,26.7,20.7,58.6,45.2l58,44.6l58.2-44.8c32-24.6,58.4-45,58.6-45.4c0.6-0.9-0.9-4.1-3.1-6.3c-1-1-2.9-2.4-4.4-3l-2.6-1.2l-106-0.1C27.6,39.6,22.6,39.6,20.3,40.4z"/><path fill="#000000" d="M10,128.5c0,32.2,0.1,58.6,0.2,58.6c0.1,0,14.2-9.8,31.4-21.8c17.2-11.9,32-21.9,32.9-22.2c2.6-0.7,5,0,7,1.9c2.9,2.9,3,7.1,0.3,10c-0.8,0.8-17,12.8-36.1,26.5c-19,13.8-34.6,25.1-34.7,25.1c-0.1,0.1,0.3,1,0.8,2c1.4,2.7,3.9,5,6.9,6.5l2.6,1.2H128h106.7l2.6-1.2c1.4-0.7,3.4-2,4.3-3c1.7-1.7,3.9-5.8,3.9-7.1c0-0.4-15.1-11.1-35.6-25.1c-19.5-13.5-36-25-36.5-25.7c-1.3-1.8-1.3-6.2,0-8c1.8-2.4,3.3-3.2,6.1-3.2h2.6l31.8,21l31.8,21l0.1-28.7c0-15.8,0-41.7,0-57.6l-0.1-28.9l-57.3,43.6c-43.3,32.9-57.8,43.7-59,43.9c-0.9,0.2-2.4,0.1-3.3-0.1c-1.1-0.3-21.2-15.3-58.3-43.5C36.6,90,10.9,70.4,10.6,70.2C10.1,70,10,81.8,10,128.5z"/></g></g></g>
</svg>